<svg width="238" height="32" viewBox="0 0 238 32" fill="none" xmlns="http://www.w3.org/2000/svg">
<g clip-path="url(#clip0_339_1408)">
<path d="M18.0927 3.71196C18.0927 1.15196 15.6607 0.511963 13.7407 0.511963V0.895963C14.8927 0.895963 15.7887 1.27996 15.7887 2.17596C15.7887 2.68796 15.4047 3.45596 14.2527 3.45596C13.3567 3.45596 11.4367 2.94396 10.0287 2.43196C8.36471 1.79196 6.82871 1.27996 5.54871 1.27996C2.98871 1.27996 1.19671 3.19996 1.19671 5.37596C1.19671 7.29596 2.60471 7.93596 3.11671 8.19196L3.24471 7.93596C2.98871 7.67996 2.60471 7.42396 2.60471 6.65596C2.60471 6.14396 3.11671 5.24796 4.39671 5.24796C5.54871 5.24796 7.08471 5.75996 9.13271 6.39996C10.9247 6.91196 12.8447 7.29596 13.8687 7.42396V11.392L11.9487 13.056V13.184L13.8687 14.848V20.352C12.8447 20.992 11.6927 21.12 10.6687 21.12C8.74871 21.12 7.08471 20.608 5.67671 19.072L10.9247 16.512V7.67996L4.52471 10.496C5.03671 8.83196 6.44471 7.67996 7.85271 6.91196L7.72471 6.52796C3.88471 7.55196 0.428711 11.136 0.428711 15.488C0.428711 20.608 4.65271 24.448 9.38871 24.448C14.5087 24.448 17.8367 20.352 17.8367 16.128H17.5807C16.8127 17.792 15.6607 19.328 14.2527 20.096V14.848L16.3007 13.184V13.056L14.2527 11.392V7.42396C16.1727 7.42396 18.0927 6.14396 18.0927 3.71196ZM6.95671 17.792L5.42071 18.56C4.52471 17.408 4.01271 15.872 4.01271 13.696C4.01271 12.8 4.01271 11.776 4.26871 11.008L6.95671 9.85596V17.792ZM20.5247 20.736L18.8607 22.016L19.1167 22.272L19.8847 21.632L22.7007 24.192L26.5407 21.632L26.4127 21.376L25.3887 22.016L24.1087 20.736V12.032L25.1327 11.264L27.3087 13.056V20.864C27.3087 25.728 26.2847 26.496 24.1087 27.264V27.648C27.6927 27.776 31.0207 26.624 31.0207 20.352V11.904L32.1727 11.008L31.9167 10.752L30.8927 11.52L27.6927 8.83196L24.1087 11.52V1.02396H23.8527L19.3727 4.09596V4.35196C19.8847 4.60796 20.6527 4.86396 20.6527 6.27196L20.5247 20.736ZM43.9487 19.328L40.7487 21.76L37.5487 19.2V17.664L43.5647 13.568V13.44L40.4927 8.83196L33.8367 12.416V20.864L32.5567 21.888L32.8127 22.144L33.9647 21.248L38.3167 24.448L44.0767 19.84L43.9487 19.328ZM37.5487 17.152V10.88L37.8047 10.752L40.6207 15.232L37.5487 17.152ZM68.3967 2.55996C68.3967 2.17596 68.2687 1.79196 68.1407 1.40796H67.8847C67.5007 2.43196 66.9887 2.94396 65.7087 2.94396C64.5567 2.94396 63.7887 2.30396 63.2767 1.79196L59.5647 6.01596L59.8207 6.27196L61.1007 5.11996C61.8687 5.75996 62.5087 6.27196 64.3007 6.39996V17.024L56.7487 4.09596C56.1087 3.07196 55.2127 1.66396 53.4207 1.66396C51.3727 1.66396 49.5807 3.45596 49.8367 6.27196H50.2207C50.3487 5.50396 50.7327 4.60796 51.6287 4.60796C52.2687 4.60796 52.9087 5.24796 53.2927 5.88796V10.112C50.9887 10.112 49.4527 11.136 49.4527 13.056C49.4527 14.08 49.9647 15.616 51.5007 16V15.744C51.2447 15.488 51.1167 15.232 51.1167 14.848C51.1167 14.208 51.6287 13.696 52.5247 13.696H53.1647V19.072C50.4767 19.072 48.3007 20.608 48.3007 23.168C48.3007 25.6 50.3487 26.752 52.6527 26.624V26.368C51.2447 26.24 50.6047 25.6 50.6047 24.704C50.6047 23.552 51.3727 23.04 52.3967 23.04C53.4207 23.04 54.3167 23.68 54.9567 24.448L58.6687 20.352L58.4127 20.096L57.5167 21.12C56.1087 19.84 55.3407 19.456 53.6767 19.2V6.39996L63.9167 24.32H64.6847V6.39996C66.6047 6.27196 68.3967 4.73596 68.3967 2.55996ZM77.7407 19.328L74.5407 21.76L71.3407 19.2V17.664L77.3567 13.568V13.44L74.2847 8.83196L67.6287 12.416V20.864L66.3487 21.888L66.6047 22.144L67.7567 21.248L72.1087 24.448L77.8687 19.84L77.7407 19.328ZM71.3407 17.152V10.88L71.5967 10.752L74.4127 15.232L71.3407 17.152ZM98.6047 10.24L97.7087 10.88L95.2767 8.83196L92.4607 11.392L93.6127 12.544V22.144L90.5407 20.224V12.288L91.5647 11.648L88.6207 8.83196L85.8047 11.392L86.9567 12.544V21.76L86.5727 22.016L83.8847 20.096V12.416C83.8847 10.624 82.9887 10.112 81.9647 9.47196C81.0687 8.83196 80.5567 8.44796 80.5567 7.55196C80.5567 6.78396 81.3247 6.39996 81.7087 6.14396V5.88796C80.6847 5.88796 77.9967 6.91196 77.9967 9.34396C77.9967 10.624 78.6367 11.136 79.2767 11.776C79.9167 12.416 80.5567 12.928 80.5567 14.08V21.504L79.1487 22.528L79.4047 22.784L80.6847 21.76L83.6287 24.32L86.8287 22.144L90.4127 24.32L97.1967 20.352V11.776L98.8607 10.496L98.6047 10.24ZM122.413 3.19996L121.133 4.35196L118.317 1.79196L114.093 4.86396V2.04796H113.709L113.837 22.784C113.453 22.784 112.301 22.528 111.405 22.272L111.149 4.99196C111.149 3.71196 110.253 1.91996 107.949 1.91996C105.645 1.91996 104.109 3.71196 104.109 5.50396H104.493C104.621 4.73596 105.005 4.09596 105.773 4.09596C106.541 4.09596 107.181 4.60796 107.181 6.27196V11.264C104.877 11.392 103.469 12.672 103.469 14.336C103.469 15.36 103.981 16.896 105.517 16.896V16.64C105.005 16.384 104.877 16 104.877 15.744C104.877 14.976 105.517 14.72 106.541 14.72H107.053V22.656C105.133 23.296 104.365 24.704 104.365 26.24C104.365 28.416 106.029 29.952 108.589 29.952C110.381 29.952 111.917 29.696 113.453 29.312C114.733 29.056 116.397 28.672 117.165 28.672C118.189 28.672 118.573 29.184 118.573 29.824C118.573 30.72 118.189 31.104 117.677 31.232V31.488C119.725 31.104 121.005 29.824 121.005 27.904C121.005 25.984 119.085 24.832 117.037 24.832C116.013 24.832 113.837 25.216 112.301 25.472C110.509 25.856 108.717 26.112 108.205 26.112C107.309 26.112 106.285 25.728 106.285 24.448C106.285 23.424 107.181 22.528 109.357 22.528C110.509 22.528 111.917 22.656 113.325 23.04C114.861 23.424 116.269 23.808 117.549 23.808C119.469 23.808 121.133 23.168 121.133 20.48V4.73596L122.669 3.45596L122.413 3.19996ZM117.165 11.008C116.781 11.392 116.269 11.776 115.629 11.776C114.989 11.776 114.349 11.392 114.093 11.008V5.37596L115.373 4.47996L117.165 6.14396V11.008ZM117.165 14.848C116.909 14.592 116.269 14.208 115.629 14.208C114.989 14.208 114.349 14.592 114.093 14.848V11.52C114.349 11.776 114.989 12.16 115.629 12.16C116.269 12.16 116.909 11.776 117.165 11.52V14.848ZM117.165 20.864C117.165 21.888 116.525 22.912 115.117 22.912H114.093V15.36C114.349 15.104 114.989 14.72 115.629 14.72C116.269 14.72 116.781 15.104 117.165 15.36V20.864ZM134.701 11.776L130.605 8.83196L124.333 12.416V20.736L123.053 21.76L123.181 22.016L124.205 21.248L128.301 24.32L134.701 20.48V11.776ZM127.789 19.84V10.624L130.989 12.928V22.016L127.789 19.84ZM146.861 9.08796H146.605C146.221 9.34396 145.837 9.59996 145.453 9.59996C144.941 9.59996 144.301 9.34396 144.045 8.95996H143.789L141.613 11.392L139.437 8.95996L135.597 11.52L135.725 11.776L136.749 11.136L138.029 12.544V20.608L136.365 21.888L136.621 22.144L137.389 21.504L140.461 24.064L144.429 21.376L144.301 21.12L143.149 21.76L141.613 20.48V11.52C142.253 12.16 143.021 12.8 143.917 12.8C145.709 12.928 146.733 11.136 146.861 9.08796ZM162.221 21.376L157.869 24.32L151.981 15.36L156.205 8.83196H156.461C156.973 9.34396 157.741 9.85596 158.637 9.85596C159.533 9.85596 160.173 9.34396 160.557 8.83196H160.813C160.685 11.392 158.893 12.928 157.613 12.928C156.333 12.928 155.693 12.288 154.925 11.904L154.541 12.544L160.941 22.016L162.221 21.248V21.376ZM148.141 20.736L146.477 22.016L146.733 22.272L147.501 21.632L150.317 24.192L154.157 21.632L153.901 21.376L152.877 22.016L151.597 20.736V1.02396H151.469L146.861 4.09596V4.35196C147.373 4.60796 148.141 4.73596 148.141 6.27196V20.736ZM183.469 3.71196C183.469 1.15196 181.037 0.511963 179.117 0.511963V0.895963C180.269 0.895963 181.165 1.27996 181.165 2.17596C181.165 2.68796 180.781 3.45596 179.629 3.45596C178.733 3.45596 176.813 2.94396 175.405 2.43196C173.741 1.91996 172.205 1.40796 170.925 1.40796C168.365 1.40796 166.573 3.32796 166.573 5.50396C166.573 7.42396 167.981 8.06396 168.493 8.31996L168.621 8.06396C168.237 7.80796 167.853 7.55196 167.853 6.78396C167.853 6.27196 168.365 5.37596 169.645 5.37596C170.797 5.37596 172.333 5.88796 174.381 6.52796C176.173 7.03996 178.093 7.42396 179.117 7.55196V11.52L177.197 13.184V13.312L179.117 14.976V20.48C178.093 21.12 176.941 21.248 175.917 21.248C173.997 21.248 172.333 20.736 170.925 19.2L176.173 16.64V7.67996L169.773 10.496C170.413 8.83196 171.821 7.67996 173.101 6.78396L172.973 6.52796C169.133 7.55196 165.677 11.008 165.677 15.36C165.677 20.48 169.901 24.32 174.637 24.32C179.757 24.32 183.085 20.224 183.085 16H182.829C182.061 17.664 180.909 19.2 179.501 19.968V14.72L181.549 13.056V12.928L179.629 11.264V7.42396C181.549 7.42396 183.469 6.14396 183.469 3.71196ZM172.333 17.792L170.797 18.56C169.901 17.408 169.389 15.872 169.389 13.696C169.389 12.8 169.517 11.776 169.773 11.008L172.461 9.85596L172.333 17.792ZM187.949 2.43196H187.821L185.261 4.60796V4.73596L187.437 7.16796H187.693L190.253 4.99196V4.86396L187.949 2.43196ZM191.789 21.376L190.765 22.016L189.485 20.736V11.904L190.765 11.008L190.509 10.752L189.613 11.52L187.309 8.83196L183.597 11.392L183.853 11.776L184.749 11.136L185.901 12.544V20.864L184.237 22.144L184.365 22.4L185.261 21.76L188.077 24.32L191.917 21.76L191.789 21.376ZM213.165 21.248L212.269 21.888L210.861 20.608V11.904L212.141 10.88L211.885 10.624L210.861 11.52L207.917 8.83196L204.077 11.52L201.133 8.83196L197.549 11.52L195.245 8.83196L191.533 11.392L191.661 11.776L192.557 11.136L193.837 12.544V20.864L192.813 21.888L195.757 24.32L198.573 21.76L197.421 20.608V11.904L198.573 11.136L200.493 12.928V20.608L199.469 21.632L202.413 24.064L205.229 21.504L204.077 20.352V11.904L205.101 11.264L207.149 13.056V20.736L206.253 21.632L209.197 24.32L213.165 21.632V21.248ZM224.301 19.328L221.101 21.76L217.901 19.2V17.664L223.917 13.568V13.44L220.845 8.83196L214.189 12.416V21.12L218.669 24.32L224.429 19.712L224.301 19.328ZM217.901 17.152V10.88L218.157 10.752L220.973 15.232L217.901 17.152ZM235.949 16L233.517 14.08C235.181 12.672 235.821 10.752 235.821 9.47196V8.70396H235.565C235.309 9.34396 234.797 9.98396 233.773 9.98396C232.749 9.98396 232.109 9.47196 231.469 8.70396L225.709 11.904V16.512L227.885 18.176C225.709 20.096 225.325 21.376 225.325 22.4C225.325 23.68 225.965 24.576 226.989 24.96L227.117 24.704C226.861 24.448 226.605 24.32 226.605 23.68C226.605 23.296 227.117 22.656 228.141 22.656C229.421 22.656 230.189 23.552 230.573 23.936L236.077 20.608V16H235.949ZM234.541 12.16C233.645 13.696 231.725 15.232 230.573 16L229.165 14.848V10.368C229.677 11.648 231.085 12.672 232.493 12.672C233.389 12.672 233.901 12.544 234.541 12.16ZM232.365 22.4C231.725 20.992 230.189 19.968 228.653 19.968C228.269 19.968 227.245 19.968 226.221 20.608C226.861 19.584 228.525 17.792 230.701 16.512L232.237 17.792L232.365 22.4Z" fill="#00373E"/>
</g>
<defs>
<clipPath id="clip0_339_1408">
<rect width="236.8" height="32" fill="white" transform="translate(0.428711)"/>
</clipPath>
</defs>
</svg>
