<svg width="188" height="32" viewBox="0 0 188 32" fill="none" xmlns="http://www.w3.org/2000/svg">
<g clip-path="url(#clip0_339_1397)">
<path d="M39.7517 11.674C41.788 11.674 43.4515 13.3375 43.4802 15.3738C43.4802 17.4102 41.8167 19.0737 39.7517 19.0737C37.7153 19.0737 36.0518 17.4102 36.0231 15.3738C36.0231 13.3375 37.6866 11.674 39.7517 11.674ZM70.4403 26.9896C70.4403 29.5996 71.2721 30.2019 73.5092 31.2057L73.71 31.2918V31.8941H60.3159V31.3205L60.4593 31.2344C62.1802 30.1445 62.2949 29.7143 62.2949 27.0183V15.4599C62.2949 12.6491 62.0942 12.2189 60.2299 11.1577L60.0578 11.0717V10.4981H70.469L70.4403 26.9896ZM148.625 23.8634L148.739 23.5479L149.37 23.806L149.342 24.0642C148.825 27.8214 147.047 32.3243 141.397 32.3243C139.275 32.3243 137.525 31.6646 136.292 30.4314C135.001 29.1407 134.342 27.2764 134.37 24.8959L134.456 11.8174L134.428 10.4694L134.628 10.3833C137.64 9.20743 140.192 6.33933 141.483 2.72552L141.569 2.52475H142.544V10.4694H148.998L148.281 12.4771H142.544V25.068C142.544 27.0757 143.29 28.1082 144.753 28.1082C146.531 28.1082 147.936 25.8998 148.625 23.8634ZM17.0077 26.5594C17.0077 29.112 17.5239 29.8864 20.0765 31.2057L20.2486 31.2918V31.8941H6.10889V31.3205L6.25229 31.2344C8.00183 30.0872 8.43205 29.1407 8.43205 26.4447V7.22844C8.43205 4.53243 8.03051 3.64332 6.25229 2.49608L6.10889 2.41003V1.83641H16.979L17.0077 26.5594ZM22.0842 1.83641C29.5126 1.83641 33.9581 5.16341 33.9581 10.7562C33.9581 16.349 29.5412 19.676 22.1702 19.676H19.1301V19.0163L19.2448 18.9876C21.1664 18.5001 25.6406 16.5498 25.6406 10.7275C25.6406 7.40052 24.436 4.99132 22.0268 3.61463C20.9943 3.01233 19.9618 2.58212 19.2735 2.46739L19.1301 2.43871V1.77905H22.0842V1.83641ZM168.472 17.4675C166.923 14.1692 164.6 11.6453 162.42 10.9283L162.306 10.8996V10.1252L163.223 10.2113C164.485 10.326 165.26 10.412 166.436 10.412C167.382 10.412 168.099 10.412 168.759 10.2113L169.16 10.0965V17.697L168.558 17.6683L168.472 17.4675ZM93.6432 10.0392C99.3794 10.4694 102.821 14.284 102.821 20.2209V20.5364H92.8115V19.9341L92.9549 19.8481C94.1308 19.131 94.6471 17.783 94.6471 15.4886C94.6471 12.9933 93.9587 11.2725 93.4998 10.6988L93.4712 10.6702V10.0105L93.6432 10.0392ZM101.846 24.6952L101.989 24.437L102.592 24.6665L102.506 24.9533C101.272 29.5136 97.1136 32.2956 92.0084 32.2956C85.3544 32.2956 80.6794 27.7353 80.6794 21.1674C80.6794 15.087 84.9242 10.4981 91.0046 10.0105H91.1767V10.6702L91.1193 10.7275C89.6566 12.0755 88.9396 15.2017 88.9396 20.2209C88.9396 25.1541 91.4061 28.2229 95.3928 28.2229C98.2035 28.2229 100.727 26.9323 101.846 24.6952ZM115.154 27.1617C115.154 29.7143 115.269 30.1445 116.99 31.2344L117.133 31.3205V31.8941H104.972V31.3205L105.116 31.2344C106.836 30.1445 106.951 29.7143 106.951 27.0183V15.4599C106.951 12.6491 106.75 12.2189 104.886 11.1577L104.714 11.0717V10.4981H115.125L115.154 27.1617ZM129.609 26.9896C129.609 29.7143 129.724 30.1159 131.445 31.2057L131.588 31.2918V31.8654H119.456V31.2918L119.6 31.2057C121.32 30.1159 121.435 29.6856 121.435 26.9896V15.718C121.435 13.739 120.489 12.5344 118.883 12.5344C118.395 12.5344 117.936 12.5918 117.621 12.6491L117.42 12.6778V12.0182L117.477 11.9608C118.624 10.9856 120.575 9.98181 122.582 9.98181C126.971 9.98181 129.609 12.8212 129.609 17.5823V26.9896ZM57.4765 29.8864C57.6199 29.8864 58.0215 29.8864 58.3083 29.743L58.7385 29.5422V30.2306L58.6524 30.3166C57.5626 31.5212 55.5262 32.2669 53.3178 32.2669C49.6753 32.2669 47.2948 30.3166 47.2948 27.2764V17.0086C47.2948 14.5421 46.3196 13.108 45.4879 12.3337C44.5414 11.4445 43.3942 11.043 42.6771 11.043H42.3616V10.3833L42.6198 10.326C43.1074 10.2113 44.5414 10.0965 45.0003 10.0965C52.0271 10.0965 55.4689 12.5918 55.4689 17.7544C55.4689 18.959 55.4402 20.1349 55.4402 21.3968V21.4829C55.4115 22.8022 55.3828 24.2649 55.3828 25.8998C55.3828 28.6818 55.6696 29.8864 57.4765 29.8864ZM34.1589 26.9896C34.1589 22.0852 39.4649 21.1674 44.1112 20.3643L45.5452 20.1922V20.8232L45.4305 20.8519C43.2508 21.5403 42.1322 23.3758 42.1322 25.9284C42.1322 27.8501 42.9066 29.026 44.2546 29.026C44.6561 29.026 45.029 28.9686 45.3445 28.8539L45.5739 28.7679V29.3988L45.5452 29.4275C44.7422 30.7755 42.3043 32.2956 40.1532 32.2956C36.2239 32.2956 34.1589 29.6283 34.1589 26.9896ZM75.9184 10.0392C77.9547 10.0392 79.6182 11.7027 79.6469 13.739C79.6469 15.7754 77.9834 17.4389 75.9184 17.4389C73.882 17.4389 72.2185 15.7754 72.1899 13.739C72.1899 11.674 73.8534 10.0392 75.9184 10.0392ZM152.525 23.72C154.705 28.1942 156.799 30.6321 159.122 31.3491L159.237 31.3778V32.1809L159.065 32.1522C158.548 32.0662 157.975 31.9514 157.258 31.808C156.254 31.6073 155.393 31.4352 154.676 31.4352C153.816 31.4352 153.214 31.5499 152.726 31.7794L152.296 32.0088L151.808 23.5192L152.439 23.5479L152.525 23.72ZM163.281 17.2955C167.325 18.7008 170.422 20.1636 170.422 25.2401C170.422 27.0757 169.648 28.7965 168.242 30.0585C166.636 31.5212 164.284 32.2956 161.474 32.2956H161.302L161.244 32.1235V31.5212H161.388C162.363 31.4925 163.252 31.1771 163.854 30.6034C164.457 30.0298 164.772 29.2267 164.772 28.3663C164.772 26.33 163.367 25.9284 160.585 25.068L159.896 24.8672C154.246 23.1177 152.095 20.7945 152.267 16.5211C152.411 12.8499 155.68 10.1252 160.04 10.0392H160.212V10.7849L160.068 10.8136C158.548 11.0143 157.401 12.305 157.401 13.8251C157.401 15.5459 159.638 16.2056 161.789 16.8652L161.875 16.8939C162.363 17.0086 162.85 17.1521 163.281 17.2955ZM175.7 27.1904C174.265 27.1904 173.176 28.3663 173.176 29.6856C173.176 31.091 174.265 32.1809 175.7 32.1809C177.076 32.2096 178.223 31.091 178.223 29.7143C178.223 28.309 177.105 27.1904 175.7 27.1904ZM175.671 27.6493C176.789 27.6493 177.65 28.5671 177.65 29.7143C177.65 30.8902 176.789 31.7507 175.671 31.7507C174.552 31.7507 173.692 30.8902 173.692 29.7143C173.721 28.5671 174.552 27.6493 175.671 27.6493ZM177.105 30.7755C177.048 30.7468 176.961 30.6895 176.847 30.6034C176.56 30.2593 176.388 30.0585 176.216 29.6856C176.531 29.5709 176.732 29.3415 176.732 29.026C176.732 28.4524 176.216 28.3376 175.786 28.3376H174.466V28.6244C174.81 28.6531 174.81 28.6531 174.81 28.9973V30.3166C174.81 30.6608 174.782 30.6608 174.438 30.6895V30.9763H175.728V30.6895C175.413 30.6608 175.384 30.6608 175.384 30.3166V29.8577H175.47C175.556 29.8577 175.671 29.8864 175.728 30.0011C175.814 30.1445 175.929 30.374 176.072 30.6321C176.302 30.9476 176.589 31.0337 177.019 31.0337C177.048 31.0337 177.105 30.7755 177.105 30.7755ZM175.413 29.5996V28.9113C175.413 28.7105 175.47 28.6818 175.642 28.6818C175.814 28.6818 176.101 28.7679 176.101 29.1407C176.101 29.3415 176.044 29.4562 175.9 29.5422C175.786 29.5996 175.671 29.6283 175.556 29.6283H175.413V29.5996Z" fill="#00373E"/>
</g>
<defs>
<clipPath id="clip0_339_1397">
<rect width="187.429" height="32" fill="white"/>
</clipPath>
</defs>
</svg>
