<svg width="120" height="32" viewBox="0 0 120 32" fill="none" xmlns="http://www.w3.org/2000/svg">
<g clip-path="url(#clip0_339_1385)">
<path d="M11.5518 2.98166H14.1805C15.7814 2.74154 17.4164 2.95265 18.9077 3.59208C20.7787 4.73815 22.1357 6.58322 22.6894 8.73368C23.0814 9.8606 23.0814 9.8606 24.0268 9.46148H24.7647V0.539985H0.0222072V2.11299H1.03681C1.47771 2.10988 1.9137 2.20738 2.31274 2.39833C2.71178 2.58928 3.06373 2.86883 3.34273 3.21643C4.28816 4.76596 4.44957 6.5033 4.44957 15.5422C4.44957 25.1445 4.24204 27.4923 3.34273 28.6897C3.12072 28.9975 2.83327 29.2503 2.50187 29.4291C2.17046 29.608 1.80365 29.7083 1.42882 29.7227C0.0222073 29.9809 0.0222072 29.9574 0.0222072 30.5913C-0.0555795 30.8033 -0.0555795 31.0367 0.0222072 31.2487H15.6333C15.7366 31.0414 15.7904 30.8121 15.7904 30.5796C15.7904 30.3471 15.7366 30.1179 15.6333 29.9105C15.2552 29.8034 14.8698 29.7249 14.4803 29.6757C14.059 29.6247 13.6425 29.5383 13.2351 29.4175C12.6518 28.9838 12.1896 28.4027 11.8944 27.7316C11.5992 27.0604 11.4811 26.3225 11.5518 25.5906C11.3212 24.0411 11.2059 21.2003 11.2059 18.8525V16.9978H12.1283C13.2774 16.962 14.4259 17.0884 15.541 17.3734C16.0752 17.7095 16.53 18.1616 16.8728 18.6973C17.2156 19.233 17.438 19.8392 17.5241 20.4725L17.7317 21.2003H19.1383V10.7997H17.847L17.6394 11.8092C17.5521 12.4569 17.3168 13.0747 16.9523 13.6129C16.5879 14.1512 16.1045 14.5948 15.541 14.9083C14.9954 15.0736 14.4205 15.1137 13.8577 15.0257H11.2059V12.4901C11.2059 9.8606 11.3443 4.31988 11.4365 3.45121L11.5518 2.98166ZM119.469 21.5994C118.379 19.8133 116.679 18.5004 114.696 17.9134C113.175 17.4296 111.77 16.6302 110.568 15.5657C110.298 15.2993 110.095 14.9697 109.979 14.6055C109.862 14.2413 109.835 13.8536 109.899 13.4762C109.901 12.7359 110.191 12.0266 110.706 11.504C111.055 11.1318 111.497 10.8631 111.985 10.7267C112.472 10.5902 112.987 10.5911 113.473 10.7293C114.481 11.0218 115.393 11.5865 116.112 12.3635C116.83 13.1405 117.329 14.101 117.555 15.1431C117.924 16.1996 117.97 16.1996 118.639 15.9178L119.054 15.7535V9.90756L118.754 9.76669C116.484 8.9549 114.076 8.61948 111.675 8.78063C109.607 8.83397 107.634 9.67121 106.141 11.1284C105.463 11.7738 104.933 12.562 104.587 13.438C104.24 14.314 104.086 15.2565 104.134 16.1996C104.147 17.6414 104.71 19.0218 105.702 20.0499C106.8 21.1486 108.146 21.955 109.623 22.3977C113.197 23.8298 114.234 24.7454 114.234 26.4123C114.25 27.1153 114.03 27.8026 113.611 28.3615C113.192 28.9204 112.598 29.3176 111.928 29.4879C111.123 29.668 110.289 29.668 109.484 29.4879C108.43 29.0713 107.489 28.4045 106.739 27.5428C105.989 26.6812 105.452 25.6497 105.172 24.5341L104.872 23.7828H104.457C104.259 23.7978 104.064 23.8454 103.881 23.9237H103.65V30.5913H104.042C105.6 31.119 107.207 31.4809 108.839 31.6713H111.144C112.144 31.746 113.15 31.6508 114.119 31.3896C115.35 31.1584 116.499 30.6033 117.454 29.7796C118.409 28.9559 119.135 27.8921 119.561 26.6941C119.836 26.0249 119.977 25.3065 119.976 24.5811C120.067 23.5591 119.892 22.5307 119.469 21.5994ZM97.747 9.46148C96.3652 8.87081 94.8764 8.58428 93.3782 8.62069C91.88 8.65711 90.4063 9.01565 89.0537 9.67278C87.7824 10.3059 86.6556 11.2035 85.746 12.3075C84.8365 13.4115 84.1644 14.6974 83.7732 16.0822C83.2744 17.5928 83.0631 19.1865 83.1506 20.7777C83.1341 21.6435 83.2036 22.5087 83.3581 23.3602C83.7305 25.454 84.7233 27.3816 86.2031 28.884C87.6829 30.3865 89.5789 31.3919 91.6364 31.7652C92.9762 31.9371 94.3319 31.9371 95.6717 31.7652C97.062 31.5157 98.3926 30.9977 99.5918 30.2392C100.584 29.673 101.423 28.8666 102.036 27.8914C101.997 27.7384 101.927 27.5951 101.832 27.47C101.737 27.3449 101.618 27.2407 101.483 27.1636C101.219 27.2606 100.971 27.395 100.745 27.5627C99.5978 28.3323 98.2435 28.7181 96.8708 28.6662C95.9597 28.7289 95.0463 28.5845 94.1968 28.2434C93.3473 27.9023 92.583 27.3731 91.9592 26.6941C91.4766 26.2377 91.0783 25.697 90.7832 25.0976C90.0666 23.638 89.6805 22.0335 89.6533 20.4021V19.4864H102.428V19.0169C102.456 18.5478 102.456 18.0773 102.428 17.6082C102.423 15.9505 101.988 14.3235 101.166 12.8926C100.344 11.4617 99.1641 10.2779 97.747 9.46148ZM91.3135 17.5847H89.6994V16.1996C90.2297 12.6544 91.5441 10.5415 93.1583 10.5415C94.7724 10.5415 95.4642 12.631 95.764 16.4578V17.5378H94.3804L91.3135 17.5847ZM58.1544 8.68672C57.3576 8.65526 56.5655 8.82462 55.8485 9.17975C54.29 9.95035 53.0312 11.232 52.2743 12.8188L51.9746 13.3822V8.68672H51.8593C51.5826 8.68672 43.0507 10.4241 42.7739 10.5415C42.4972 10.6588 42.5895 10.6823 42.5895 11.1049C42.5895 11.5275 42.5895 11.5979 42.7739 11.6214L43.6733 11.8092C43.9251 11.8155 44.1723 11.8801 44.396 11.9981C44.6197 12.116 44.8142 12.2843 44.9646 12.4901C45.541 13.2649 45.6563 14.6266 45.6563 20.4255C45.7702 23.0362 45.6622 25.6519 45.3335 28.2436C45.2561 28.6344 45.0615 28.9911 44.7765 29.2644C44.4915 29.5378 44.1302 29.7143 43.7424 29.7696L42.9584 29.934H42.6586V30.5913C42.575 30.8103 42.575 31.0532 42.6586 31.2722H55.5487V30.5913C55.5935 30.3667 55.5935 30.1352 55.5487 29.9105C54.7726 29.8797 54.0009 29.7775 53.2428 29.6053C52.83 29.3854 52.4923 29.0435 52.2741 28.6244C52.056 28.2053 51.9676 27.7287 52.0207 27.2575C51.8362 25.8958 51.744 21.9046 51.7901 18.8525C51.8362 15.8004 51.7901 15.6126 52.0437 15.4013C52.8153 14.799 53.7702 14.4915 54.7417 14.5326C55.6574 14.553 56.5565 14.7858 57.3704 15.2135C57.6526 15.373 57.9553 15.4916 58.2697 15.5657C58.2697 15.5657 60.5756 9.88408 60.5756 9.62583C60.2805 9.2767 59.9046 9.008 59.4819 8.84402C59.0591 8.68005 58.6029 8.62599 58.1544 8.68672ZM42.6125 18.5473C42.532 16.8696 42.059 15.2358 41.2327 13.782C40.4064 12.3281 39.2509 11.0963 37.8623 10.1893C36.2122 9.28293 34.3763 8.78318 32.5021 8.73017C30.6279 8.67717 28.7676 9.07238 27.0706 9.88408C24.6713 11.1722 22.8597 13.362 22.0207 15.9883C21.154 18.9286 21.154 22.0633 22.0207 25.0037C22.475 26.6106 23.3242 28.0732 24.488 29.2531C25.9375 30.6931 27.8065 31.6158 29.8147 31.8826C31.1037 31.9924 32.3996 31.9924 33.6886 31.8826C34.163 31.8091 34.6327 31.7072 35.0952 31.5774C36.9722 31.0428 38.6608 29.9751 39.9634 28.4991C41.2661 27.0231 42.129 25.1999 42.4511 23.2428C42.6813 21.6891 42.7355 20.1136 42.6125 18.5473ZM33.0199 30.2861C30.714 30.9905 28.9845 28.7131 28.4081 23.9237C28.1964 21.4162 28.1964 18.8949 28.4081 16.3874C28.8693 12.5371 30.0453 10.5884 31.8669 10.5884C32.2345 10.5652 32.6021 10.632 32.9391 10.7831C33.2761 10.9342 33.5726 11.1653 33.8039 11.4571C35.3489 13.0301 36.1098 16.1526 36.1098 20.8481C36.3017 23.5055 35.8915 26.1723 34.9108 28.6427C34.4777 29.3632 33.8077 29.9039 33.0199 30.1687V30.2861ZM74.5264 9.15627C73.8758 9.07103 73.2171 9.07103 72.5664 9.15627C71.3174 9.15519 70.0828 9.42742 68.9461 9.95451L68.2313 10.2597V5.16508C68.3562 3.44573 68.3562 1.71934 68.2313 0C67.9546 0 59.146 1.71387 59.0076 1.7843C58.9396 1.95764 58.9396 2.15095 59.0076 2.32428C59.0076 2.81731 59.0076 2.79384 60.0453 3.02861C60.3366 3.09514 60.6165 3.20594 60.8754 3.3573C61.3255 3.78825 61.6251 4.35707 61.7286 4.97726C61.9911 6.76396 62.0761 8.57305 61.9822 10.3771V30.9905L62.6048 31.1313C63.5272 31.3426 66.1329 31.7887 66.9861 31.8826C68.6898 32.0206 70.4015 32.0206 72.1052 31.8826C73.9962 31.686 75.7987 30.9677 77.3184 29.8051C78.8381 28.6426 80.0175 27.0799 80.7294 25.2854C81.1538 24.1337 81.4477 22.9364 81.6056 21.7168C81.7429 20.0648 81.6887 18.4021 81.4442 16.763C81.1968 14.9257 80.4003 13.2103 79.1628 11.8496C77.9253 10.4888 76.3067 9.54852 74.5264 9.15627ZM68.4849 29.887C68.4849 29.5818 68.2543 19.2986 68.3005 15.19V11.9736L68.9692 11.8092C69.4204 11.7434 69.8785 11.7434 70.3297 11.8092C70.8287 11.7576 71.3306 11.873 71.7593 12.1379C72.6205 12.743 73.3356 13.5392 73.8508 14.4663C74.3661 15.3935 74.668 16.4276 74.734 17.4908C74.902 19.2004 74.902 20.9228 74.734 22.6324C74.596 25.1172 73.6556 27.4859 72.0591 29.3705C71.606 29.8087 71.0369 30.1025 70.4219 30.2157C69.9565 30.2981 69.4807 30.2981 69.0153 30.2157C68.5772 30.2157 68.5772 30.0748 68.5772 29.887H68.4849Z" fill="#00373E"/>
</g>
<defs>
<clipPath id="clip0_339_1385">
<rect width="120" height="32" fill="white"/>
</clipPath>
</defs>
</svg>
