<svg width="96" height="32" viewBox="0 0 96 32" fill="none" xmlns="http://www.w3.org/2000/svg">
<g clip-path="url(#clip0_339_1411)">
<path d="M70.2832 25.7924C72.4494 24.8291 74.6394 21.3032 74.6871 21.2179C74.7348 21.1327 74.8439 20.9784 74.5993 20.8053C74.5332 20.7581 74.4512 20.7387 74.3709 20.7514C74.2907 20.7641 74.2187 20.8077 74.1703 20.873C71.2854 24.2597 69.5996 24.6284 69.0653 24.3374C68.0693 23.7956 68.038 22.5814 68.8721 18.4999C69.3738 16.0502 69.8342 14.3518 70.0913 11.1659C70.3146 8.38759 69.9947 6.14865 68.5347 5.36345C65.3989 3.68142 62.7649 8.67609 61.0991 12.1167C61.0991 12.1167 61.2685 4.47916 58.667 2.96019C56.7692 1.85138 54.2769 2.91754 51.9251 6.3092C51.9251 6.3092 51.9138 1.99939 48.9637 0.790229C46.6244 -0.166811 44.6764 1.19161 42.9003 2.65915C40.5548 4.59832 38.5692 6.24774 38.5692 6.24774C38.5692 6.24774 37.1606 3.55348 34.1967 4.18314C31.1926 4.82159 30.4463 7.85451 31.4685 9.06116C31.4685 9.06116 29.1355 12.9157 29.2108 17.2694C29.286 21.6231 31.0408 24.4001 35.2954 24.2459C40.8708 24.0427 42.2079 20.932 41.8781 16.4039C41.4353 10.2979 39.4259 7.56978 39.4259 7.56978C41.1982 5.97054 42.5516 4.19067 44.2274 2.91002C46.3447 1.2907 48.0894 2.08217 47.4999 5.01224C46.5867 9.54783 44.8821 15.1772 44.3967 17.5604C42.6194 26.3029 40.6727 30.8561 44.2876 31.8119C47.6905 32.7062 48.0819 30.407 48.6576 26.5776C48.9336 24.7539 49.6799 20.3236 50.4488 16.3876C51.2177 12.4516 53.2986 5.97681 55.0182 6.07464C56.7379 6.17248 56.2387 9.69333 56.2851 12.8141C56.3315 15.9348 56.3754 17.519 58.366 17.8313C60.3566 18.1436 61.0791 16.9269 61.7526 15.0267C62.4262 13.1264 64.2964 8.39512 65.4039 8.88054C66.7072 9.45501 64.3578 16.3399 63.9489 19.8257C63.5852 22.9263 64.334 24.5519 65.424 25.4073C66.514 26.2628 68.1183 26.7545 70.2832 25.7924ZM35.0095 6.02071C36.033 5.62811 37.0552 7.30638 37.0552 7.30638C34.879 8.93698 34.3534 8.34244 34.1176 7.93353C33.9696 7.67264 33.9872 6.41582 35.0095 6.02071ZM36.2487 21.2982C33.9408 21.534 33.0101 20.1129 32.8269 17.3446C32.5184 12.6886 33.2497 10.17 33.2497 10.17C33.2497 10.17 33.7903 10.4309 35.0295 10.2339C36.3704 10.0207 37.8944 8.87928 37.8944 8.87928C37.8944 8.87928 39.0847 10.5488 39.18 14.984C39.2578 18.6893 38.3045 21.0888 36.2487 21.2995V21.2982Z" fill="#00373E"/>
<path d="M78.2329 22.5977C81.1216 22.5977 83.4634 20.2559 83.4634 17.3672C83.4634 14.4785 81.1216 12.1367 78.2329 12.1367C75.3442 12.1367 73.0024 14.4785 73.0024 17.3672C73.0024 20.2559 75.3442 22.5977 78.2329 22.5977Z" fill="#CAFFF2"/>
<path d="M5.47678 5.01723C4.52852 9.54154 2.8628 15.1772 2.37487 17.5604C0.597509 26.3029 -1.35044 30.8561 2.26574 31.8118C5.66869 32.7062 6.05878 30.407 6.63577 26.5776C6.91046 24.7538 7.65803 20.3236 8.42692 16.3876C9.19582 12.4515 11.2767 5.97678 12.9964 6.07462C14.716 6.17246 14.2168 9.69331 14.262 12.814C14.3071 15.9348 14.3535 17.519 16.3429 17.8313C18.3322 18.1436 19.0572 16.9269 19.7358 15.0266C20.4144 13.1264 21.552 8.96455 22.6307 9.10002C23.7095 9.23548 22.405 14.7996 22.3598 18.2377C22.3147 21.6757 22.4351 23.9837 24.1698 25.0687C27.5113 27.1583 30.9958 22.9213 30.9155 22.6855C30.8796 22.5496 30.8082 22.4258 30.7085 22.3267C30.7085 22.3267 28.1447 24.6899 26.9343 24.2521C25.8681 23.8658 26.0287 20.9909 26.5266 16.3349C27.0246 11.6789 28.0193 5.7046 25.2146 4.9357C22.41 4.16681 20.0469 8.16556 18.6834 11.7391C18.6834 11.7391 18.8678 3.55722 16.7468 2.42332C14.6621 1.30949 12.6075 2.17873 10.2545 5.57164C10.2545 5.57164 10.9769 1.16524 8.40685 0.247087C6.45013 -0.451565 6.14282 0.400113 5.87314 1.95546C5.87314 1.95546 5.67873 4.05392 5.47678 5.01723Z" fill="#00373E"/>
<path d="M74.8276 19.1909C74.8274 19.0686 74.8634 18.9489 74.9312 18.847C74.999 18.7452 75.0955 18.6657 75.2085 18.6187C75.3215 18.5717 75.4459 18.5593 75.5659 18.583C75.6859 18.6067 75.7962 18.6655 75.8828 18.752C75.9694 18.8384 76.0285 18.9486 76.0524 19.0686C76.0764 19.1886 76.0642 19.3129 76.0174 19.426C75.9707 19.5391 75.8914 19.6357 75.7897 19.7037C75.688 19.7717 75.5684 19.808 75.446 19.808C75.2829 19.8058 75.1271 19.7401 75.0117 19.6249C74.8963 19.5097 74.8302 19.354 74.8276 19.1909Z" fill="#00373E"/>
<path d="M81.3252 16.227C81.2143 16.0654 81.0629 15.9357 80.8862 15.8508C80.6925 15.7503 80.4772 15.6986 80.259 15.7002C80.0481 15.6955 79.8388 15.7382 79.6464 15.825C79.4541 15.9118 79.2837 16.0406 79.1477 16.202C79.0152 16.3584 78.9143 16.539 78.8504 16.7338C78.7137 17.145 78.7137 17.5894 78.8504 18.0006C78.9143 18.1954 79.0152 18.376 79.1477 18.5325C79.2789 18.6871 79.4419 18.8116 79.6256 18.8975C79.8273 18.9876 80.0457 19.0342 80.2665 19.0342C80.4874 19.0342 80.7059 18.9876 80.9075 18.8975C81.0915 18.8122 81.2533 18.6855 81.3804 18.5275L81.9937 19.0831C81.7942 19.3141 81.5439 19.4957 81.2625 19.6137C80.9482 19.7456 80.6098 19.8105 80.2691 19.8043C79.9311 19.8076 79.5956 19.7481 79.2794 19.6287C78.9876 19.5186 78.7207 19.3515 78.4942 19.1371C78.2695 18.9201 78.0919 18.6592 77.9724 18.3707C77.8422 18.0524 77.7777 17.7111 77.783 17.3672C77.7787 17.0268 77.8413 16.6888 77.9674 16.3725C78.0844 16.0825 78.2606 15.8199 78.4848 15.6018C78.709 15.3837 78.9762 15.2147 79.2694 15.1057C79.5835 14.985 79.9175 14.9242 80.254 14.9263C80.5867 14.928 80.9159 14.9941 81.2236 15.1207C81.5257 15.2362 81.7906 15.4318 81.99 15.6864L81.3252 16.227Z" fill="#00373E"/>
<path d="M87.5839 17.3572C87.5875 17.695 87.5227 18.0299 87.3932 18.3419C87.2721 18.6331 87.0933 18.8968 86.8676 19.117C86.6387 19.3357 86.3684 19.5063 86.0724 19.6188C85.4381 19.8596 84.7375 19.8596 84.1031 19.6188C83.8087 19.5072 83.5401 19.3364 83.3142 19.117C83.09 18.8963 82.9126 18.6326 82.7924 18.3419C82.6629 18.0299 82.598 17.695 82.6017 17.3572C82.5978 17.0211 82.6627 16.6877 82.7924 16.3776C82.913 16.09 83.0905 15.8298 83.3142 15.6125C83.5409 15.3941 83.8092 15.2235 84.1031 15.1108C84.7375 14.87 85.4381 14.87 86.0724 15.1108C86.3678 15.2243 86.638 15.3948 86.8676 15.6125C87.0929 15.8293 87.2717 16.0896 87.3932 16.3776C87.5229 16.6877 87.5878 17.0211 87.5839 17.3572ZM86.6281 17.3572C86.6287 17.1439 86.5939 16.932 86.5252 16.7301C86.4611 16.5362 86.3601 16.3565 86.228 16.2008C86.094 16.0465 85.929 15.9221 85.7438 15.8358C85.5351 15.7464 85.3104 15.7003 85.0834 15.7003C84.8564 15.7003 84.6317 15.7464 84.423 15.8358C84.2376 15.9218 84.0726 16.0462 83.9388 16.2008C83.8067 16.3567 83.7054 16.5363 83.6403 16.7301C83.5032 17.1404 83.5032 17.5841 83.6403 17.9944C83.7059 18.1895 83.8071 18.3706 83.9388 18.5288C84.0713 18.686 84.2365 18.8123 84.423 18.8988C84.6317 18.9882 84.8564 19.0343 85.0834 19.0343C85.3104 19.0343 85.5351 18.9882 85.7438 18.8988C85.93 18.8119 86.0952 18.6857 86.228 18.5288C86.3597 18.3709 86.4605 18.1896 86.5252 17.9944C86.5945 17.7909 86.6292 17.5772 86.6281 17.3623V17.3572Z" fill="#00373E"/>
<path d="M90.3083 15.1885C90.5792 15.0124 90.8971 14.9223 91.2201 14.9302C91.5152 14.9257 91.8061 14.9997 92.063 15.1446C92.3326 15.3102 92.5399 15.5602 92.6526 15.8558C92.7986 15.5679 93.0258 15.3289 93.3061 15.1685C93.5628 15.0285 93.8476 14.9479 94.1396 14.9327C94.4316 14.9175 94.7233 14.9681 94.9931 15.0807C95.1989 15.1754 95.3816 15.3136 95.5287 15.4858C95.6747 15.6597 95.7828 15.8622 95.846 16.0804C95.9152 16.3179 95.9494 16.5642 95.9476 16.8116V19.6777H95.032V17.1139C95.0328 16.9338 95.0164 16.7541 94.9831 16.5771C94.9543 16.4193 94.8983 16.2678 94.8175 16.1293C94.7414 16.0005 94.634 15.8931 94.5052 15.817C94.3517 15.733 94.1782 15.6927 94.0035 15.7003C93.8165 15.6933 93.6311 15.7366 93.4666 15.8257C93.3205 15.9101 93.1957 16.0268 93.1016 16.1669C93.0052 16.3107 92.9359 16.471 92.8972 16.6398C92.8545 16.8151 92.833 16.9949 92.8332 17.1754V19.6715H91.9188V16.9333C91.9207 16.7648 91.9043 16.5966 91.8699 16.4316C91.8423 16.2928 91.7854 16.1615 91.7031 16.0465C91.6247 15.9395 91.5214 15.8534 91.402 15.7956C91.2584 15.7292 91.1011 15.6974 90.9429 15.7028C90.7799 15.7012 90.6187 15.7377 90.4723 15.8096C90.3259 15.8815 90.1984 15.9867 90.1 16.1167C89.8759 16.3927 89.7639 16.7615 89.7639 17.223V19.6802H88.847V16.0553C88.847 15.9298 88.847 15.7718 88.837 15.5774C88.8269 15.383 88.8206 15.2099 88.8081 15.0606H89.6761C89.6886 15.1773 89.6987 15.3115 89.7049 15.4557C89.7112 15.6 89.715 15.7229 89.715 15.8207H89.7438C89.8701 15.562 90.0655 15.3433 90.3083 15.1885Z" fill="#00373E"/>
</g>
<defs>
<clipPath id="clip0_339_1411">
<rect width="95.719" height="32" fill="white" transform="translate(0.228516)"/>
</clipPath>
</defs>
</svg>
